<svg width="26" height="26" viewBox="0 0 26 26" fill="none" xmlns="http://www.w3.org/2000/svg">
    <path fill-rule="evenodd" clip-rule="evenodd" d="M19.7175 7.69609C19.9128 7.50083 19.9128 7.18425 19.7175 6.98898L19.0104 6.28188C18.8151 6.08662 18.4985 6.08662 18.3033 6.28188L13 11.5852L7.69669 6.28191C7.50142 6.08664 7.18484 6.08664 6.98958 6.28191L6.28247 6.98901C6.08721 7.18427 6.08721 7.50086 6.28247 7.69612L11.5858 12.9994L6.28247 18.3027C6.08721 18.498 6.08721 18.8145 6.28247 19.0098L6.98958 19.7169C7.18484 19.9122 7.50142 19.9122 7.69668 19.7169L13 14.4136L18.3033 19.7169C18.4985 19.9122 18.8151 19.9122 19.0104 19.7169L19.7175 19.0098C19.9128 18.8146 19.9128 18.498 19.7175 18.3027L14.4142 12.9994L19.7175 7.69609Z" fill="#161823"/>
</svg>
