<svg width="27" height="27" viewBox="0 0 27 27" fill="none" xmlns="http://www.w3.org/2000/svg">
<circle cx="13.5" cy="13.5" r="13.5" fill="#FF4C3A"/>
<path d="M10.3535 9.79242L13.5001 12.939L16.6459 9.79215C16.8412 9.59683 17.1578 9.5968 17.3531 9.79209L17.7072 10.1462C17.9024 10.3414 17.9024 10.658 17.7072 10.8533L14.5608 13.9997L17.7072 17.1461C17.9025 17.3414 17.9025 17.658 17.7072 17.8532L17.3537 18.2068C17.1584 18.4021 16.8418 18.4021 16.6465 18.2068L13.5001 15.0603L10.3537 18.2068C10.1584 18.402 9.84183 18.402 9.64657 18.2068L9.29312 17.8533C9.09786 17.6581 9.09785 17.3415 9.29311 17.1462L12.4394 13.9997L9.29292 10.8531C9.09769 10.6579 9.09765 10.3414 9.29284 10.1461L9.64629 9.7925C9.84154 9.59716 10.1582 9.59712 10.3535 9.79242Z" fill="white"/>
</svg>
