<svg xmlns="http://www.w3.org/2000/svg" width="170.667" height="170.667" preserveAspectRatio="xMidYMid meet" version="1.0" viewBox="0 0 128 128"><metadata>Created by potrace 1.14, written by Peter Selinger 2001-2017</metadata><g fill="#000" stroke="none"><path d="M209 1262 c-62 -23 -108 -56 -145 -106 -62 -81 -63 -90 -61 -531 2 -396 2 -400 25 -446 30 -60 84 -114 147 -147 l50 -27 415 0 415 0 47 24 c61 31 113 83 146 145 l27 51 0 415 0 415 -27 50 c-33 63 -87 117 -147 147 -46 23 -50 23 -446 25 -355 2 -405 0 -446 -15z" transform="translate(0.000000,128.000000) scale(0.100000,-0.100000)"/></g></svg>